<?xml version="1.0" encoding="UTF-8"?>
<svg width="2048" height="1024" viewBox="0 0 2048 1024" xmlns="http://www.w3.org/2000/svg" role="img" aria-label="Danubria modern truck logo">
  <defs>
    <linearGradient id="fade" x1="0" x2="1">
      <stop offset="0" stop-color="#ffffff" stop-opacity="0.02"/>
      <stop offset="1" stop-color="#ffffff" stop-opacity="0.9"/>
    </linearGradient>
  </defs>

  <!-- Trailer long speed lines group (to the left) -->
  <g id="speed-lines" fill="#ffffff">
    <g transform="translate(120,260)">
      <rect x="-980" y="0" width="720" height="18" rx="9" opacity="0.95"/>
      <rect x="-980" y="36" width="760" height="16" rx="8" opacity="0.95"/>
      <rect x="-980" y="72" width="840" height="14" rx="7" opacity="0.95"/>
      <rect x="-980" y="108" width="900" height="14" rx="7" opacity="0.95"/>
      <rect x="-980" y="144" width="980" height="12" rx="6" opacity="0.95"/>
      <rect x="-980" y="180" width="1020" height="12" rx="6" opacity="0.95"/>
      <rect x="-980" y="216" width="1060" height="12" rx="6" opacity="0.95"/>
      <rect x="-980" y="252" width="1080" height="10" rx="5" opacity="0.95"/>
      <rect x="-980" y="288" width="1100" height="10" rx="5" opacity="0.95"/>
      <rect x="-980" y="324" width="1120" height="10" rx="5" opacity="0.95"/>
      <rect x="-980" y="360" width="1140" height="10" rx="5" opacity="0.95"/>
      <rect x="-980" y="396" width="1160" height="10" rx="5" opacity="0.95"/>
      <rect x="-980" y="432" width="1180" height="10" rx="5" opacity="0.95"/>
      <rect x="-980" y="468" width="1200" height="10" rx="5" opacity="0.95"/>
      <rect x="-980" y="504" width="1220" height="10" rx="5" opacity="0.95"/>
      <rect x="-980" y="540" width="1240" height="10" rx="5" opacity="0.95"/>
      <rect x="-980" y="576" width="1260" height="8" rx="4" opacity="0.95"/>
      <rect x="-980" y="612" width="1280" height="8" rx="4" opacity="0.95"/>
    </g>
  </g>

  <!-- Trailer body (rounded rectangle) -->
  <g id="trailer" transform="translate(420,220)">
    <rect x="0" y="40" width="880" height="420" rx="22" fill="#ffffff" />
    <g fill="#e6e6e6" opacity="0.06">
      <rect x="60" y="80" width="760" height="6" rx="3"/>
      <rect x="60" y="140" width="760" height="6" rx="3"/>
      <rect x="60" y="200" width="760" height="6" rx="3"/>
      <rect x="60" y="260" width="760" height="6" rx="3"/>
      <rect x="60" y="320" width="760" height="6" rx="3"/>
    </g>
  </g>

  <!-- Chassis and wheels -->
  <g id="chassis" transform="translate(420,220)">
    <rect x="-10" y="420" width="940" height="28" rx="6" fill="#ffffff"/>
    <g transform="translate(250,460)">
      <circle cx="0" cy="0" r="58" fill="#ffffff"/>
      <circle cx="0" cy="0" r="22" fill="#ffffff"/>
    </g>
    <g transform="translate(720,460)">
      <circle cx="0" cy="0" r="58" fill="#ffffff"/>
      <circle cx="0" cy="0" r="22" fill="#ffffff"/>
    </g>
  </g>

  <!-- Modern cab / tractor unit -->
  <g id="cab" transform="translate(1180,200) scale(1.0)">
    <path d="M0 220 C20 150 60 120 160 120 L260 120 C320 120 380 140 420 180 L480 260 L480 340 L360 340 L340 320 L260 320 L240 300 L40 300 C10 300 -10 260 0 220 Z" fill="#ffffff"/>
    <rect x="140" y="150" width="120" height="96" rx="12" fill="#ffffff" opacity="0.0" />
    <path d="M190 150 Q220 130 260 150 L260 210 Q220 190 190 210 Z" fill="#ffffff" opacity="0.98"/>
    <path d="M420 255 C430 245 470 245 480 255 C470 265 430 265 420 255 Z" fill="#ffffff"/>
    <g fill="#e6e6e6" opacity="0.06">
      <rect x="310" y="220" width="60" height="6" rx="3"/>
      <rect x="310" y="240" width="60" height="6" rx="3"/>
      <rect x="310" y="260" width="60" height="6" rx="3"/>
    </g>
    <rect x="350" y="320" width="120" height="24" rx="8" fill="#ffffff"/>
  </g>

  <rect x="410" y="440" width="24" height="12" rx="3" fill="#ffffff" opacity="0.95"/>
  <ellipse cx="880" cy="620" rx="420" ry="36" fill="#000000" opacity="0.06"/>
</svg>
